<?xml version="1.0" encoding="utf-8"?>
<!-- Generator: Adobe Illustrator 24.0.1, SVG Export Plug-In . SVG Version: 6.00 Build 0)  -->
<svg version="1.1" id="Layer_1" xmlns="http://www.w3.org/2000/svg" xmlns:xlink="http://www.w3.org/1999/xlink" x="0px" y="0px"
	 viewBox="0 0 200 200" style="enable-background:new 0 0 200 200;" xml:space="preserve">
<style type="text/css">
	.st0{fill:#E0AFA0;}
	.st1{fill:#F4F3EE;}
	.st2{fill:none;stroke:#F4F3EE;stroke-width:7;stroke-miterlimit:10;}
</style>
<g>
	<circle class="st0" cx="99.6" cy="100.5" r="94.6"/>
</g>
<path class="st1" d="M139.4,157.5H62c-1.7,0-3-1.3-2.6-2.7l2.8-9c1.4-4.3,2.2-8.8,2.4-13.2l1.9-38.3c0.2-3,3.2-5.4,6.9-5.3l53.2,0.6
	c3.6,0,6.5,2.3,6.7,5.2l3.2,39.2c0.3,4.2,1.2,8.4,2.6,12.5l2.8,8.3C142.5,156.1,141.2,157.5,139.4,157.5z"/>
<path class="st2" d="M121.8,87.1c0-24.4-9.7-44.2-21.6-44.2S78.6,62.6,78.6,87.1"/>
</svg>
