<?xml version="1.0" encoding="utf-8"?>
<!-- Generator: Adobe Illustrator 24.0.1, SVG Export Plug-In . SVG Version: 6.00 Build 0)  -->
<svg version="1.1" id="Layer_1" xmlns="http://www.w3.org/2000/svg" xmlns:xlink="http://www.w3.org/1999/xlink" x="0px" y="0px"
	 viewBox="0 0 413 77" style="enable-background:new 0 0 413 77;" xml:space="preserve">
<style type="text/css">
	.st0{fill:#463F3A;}
	.st1{fill:#E0AFA0;}
</style>
<path class="st0" d="M-128.2-94.5h-1.3l0.2-9.2h37l0.2,9.2h-1.2c-0.4-2.5-1-4.3-1.8-5.4c-0.8-1.1-1.6-1.8-2.4-2.1
	c-0.9-0.3-2.3-0.4-4.4-0.4h-6.1v26.9c0,3,0.1,4.9,0.2,5.9c0.1,0.9,0.5,1.6,1.1,2.1s1.8,0.7,3.5,0.7h1.9v1.3h-19v-1.3h2
	c1.6,0,2.8-0.2,3.4-0.6c0.6-0.4,1-1.1,1.2-1.9c0.2-0.9,0.3-2.9,0.3-6.1v-26.9h-5.7c-2.5,0-4.1,0.1-5,0.4c-0.8,0.2-1.6,0.9-2.4,2.1
	C-127.3-98.7-127.8-96.9-128.2-94.5z"/>
<path class="st0" d="M-57.7-84.6h-19.9v9.2c0,3,0.1,5,0.2,5.9c0.1,0.9,0.5,1.6,1.1,2.1c0.6,0.5,1.8,0.7,3.5,0.7h1v1.3H-89v-1.3h1
	c1.6,0,2.8-0.2,3.4-0.6c0.6-0.4,1-1.1,1.2-1.9c0.2-0.9,0.3-2.9,0.3-6.1v-18.7c0-3-0.1-5-0.3-5.9c-0.2-0.9-0.6-1.5-1.1-1.8
	s-1.8-0.5-3.8-0.5H-89v-1.3h17.2v1.3h-0.7c-1.9,0-3.1,0.2-3.7,0.5c-0.6,0.3-1,0.9-1.2,1.7s-0.3,2.9-0.3,6v7.6h19.9v-7.6
	c0-3-0.1-5-0.3-5.9c-0.2-0.9-0.5-1.5-1.1-1.8c-0.6-0.3-1.8-0.5-3.8-0.5h-1v-1.3h17.4v1.3H-47c-1.9,0-3.1,0.2-3.7,0.5s-1,0.9-1.2,1.7
	c-0.2,0.8-0.3,2.9-0.3,6v18.7c0,3,0.1,5,0.2,5.9c0.1,0.9,0.5,1.6,1.1,2.1s1.8,0.7,3.5,0.7h0.9v1.3h-17.4v-1.3h1.3
	c1.6,0,2.7-0.2,3.4-0.6c0.6-0.4,1-1.1,1.2-1.9c0.2-0.9,0.3-2.9,0.3-6.1V-84.6z"/>
<path class="st0" d="M39,38.4H19v9.2c0,3,0.1,5,0.2,5.9c0.1,0.9,0.5,1.6,1.1,2.1c0.6,0.5,1.8,0.7,3.5,0.7h1v1.3H7.7v-1.3h1
	c1.6,0,2.8-0.2,3.4-0.6c0.6-0.4,1-1.1,1.2-1.9c0.2-0.9,0.3-2.9,0.3-6.1V28.8c0-3-0.1-5-0.3-5.9c-0.2-0.9-0.6-1.5-1.1-1.8
	s-1.8-0.5-3.8-0.5H7.7v-1.3h17.2v1.3h-0.7c-1.9,0-3.1,0.2-3.7,0.5c-0.6,0.3-1,0.9-1.2,1.7s-0.3,2.9-0.3,6v7.6H39v-7.6
	c0-3-0.1-5-0.3-5.9c-0.2-0.9-0.5-1.5-1.1-1.8c-0.6-0.3-1.8-0.5-3.8-0.5h-1v-1.3h17.4v1.3h-0.6c-1.9,0-3.1,0.2-3.7,0.5
	s-1,0.9-1.2,1.7c-0.2,0.8-0.3,2.9-0.3,6v18.7c0,3,0.1,5,0.2,5.9c0.1,0.9,0.5,1.6,1.1,2.1s1.8,0.7,3.5,0.7h0.9v1.3H32.8v-1.3h1.3
	c1.6,0,2.7-0.2,3.4-0.6c0.6-0.4,1-1.1,1.2-1.9c0.2-0.9,0.3-2.9,0.3-6.1V38.4z"/>
<path class="st0" d="M126.3,50.9l13.9-31.6h11.7v1.3h-1.4c-1.9,0-3.1,0.2-3.7,0.5c-0.6,0.3-1,0.9-1.2,1.7s-0.3,2.9-0.3,6v18.7
	c0,3,0.1,5,0.2,5.9c0.1,0.9,0.5,1.6,1.1,2.1c0.6,0.5,1.8,0.7,3.5,0.7h1.7v1.3h-18.2v-1.3h1.4c1.6,0,2.7-0.2,3.4-0.6
	c0.6-0.4,1-1.1,1.2-1.9c0.2-0.9,0.3-2.9,0.3-6.1V23.3l-15.1,34.2h-1.3l-15.2-34.2v22.3c0,3.1,0.1,5.1,0.3,6.2
	c0.2,1.1,0.8,2.1,1.7,2.9c1,0.8,2.3,1.3,4.1,1.4v1.3h-13.6v-1.3c1.6-0.1,3-0.5,4-1.3c1-0.8,1.6-1.8,1.9-2.9s0.3-3.3,0.3-6.5V28.8
	c0-3-0.1-5-0.3-5.9s-0.6-1.5-1.1-1.8c-0.6-0.3-1.8-0.5-3.8-0.5h-1v-1.3h11.6L126.3,50.9z"/>
<path class="st0" d="M170.2,38h-4.2v9c0,4.5,0.3,7.2,0.9,8c0.6,0.8,2.1,1.2,4.7,1.2h2.8c2,0,3.7-0.3,5-0.8s2.5-1.6,3.7-3.2
	c1.2-1.6,2.1-3.8,2.8-6.6h1.4l-0.8,11.9h-31.6v-1.3h0.8c1.9,0,3.1-0.3,3.7-0.8c0.6-0.5,0.9-1.1,1.1-1.9c0.1-0.8,0.2-2.8,0.2-6V28.8
	c0-2.9-0.1-4.8-0.2-5.7c-0.2-0.9-0.5-1.6-1.1-1.9c-0.6-0.4-1.8-0.5-3.6-0.5v-1.3h27.3l0.9,9.5h-1.3c-0.6-2.7-1.3-4.6-2.2-5.7
	s-1.9-1.8-3.1-2.1c-1.2-0.3-3.1-0.4-5.8-0.4h-5.3v16h4.1"/>
<path class="st0" d="M206.8-22.9v-12.3h1.4c1.6,8,5.4,12,11.3,12c2.7,0,4.8-0.8,6.2-2.3c1.5-1.5,2.2-3.2,2.2-5.1
	c0-1.9-0.6-3.5-1.9-4.8c-1.3-1.3-3.7-2.6-7.1-4.1c-3.1-1.3-5.4-2.5-6.9-3.4c-1.6-1-2.8-2.3-3.6-3.8s-1.3-3.3-1.3-5
	c0-2.7,0.9-5,2.8-6.8c1.9-1.8,4.3-2.7,7.2-2.7c1.6,0,3.1,0.3,4.6,0.8c1.4,0.5,2.9,1.6,4.4,3.3c0.9-1,1.4-2.1,1.5-3.3h1.2v10h-1.2
	c-0.7-2.9-2-5.2-3.8-6.9c-1.8-1.7-3.9-2.5-6.3-2.5c-2.3,0-3.9,0.6-5,1.8c-1.1,1.2-1.6,2.6-1.6,4c0,1.8,0.7,3.3,2,4.5
	c1.3,1.2,3.7,2.6,7.1,4.2c3.3,1.5,5.7,2.6,7.2,3.5c1.5,0.9,2.7,2.1,3.6,3.7c0.9,1.6,1.4,3.4,1.4,5.5c0,3.3-1.1,5.9-3.3,8
	c-2.2,2-5.1,3.1-8.7,3.1c-4.2,0-7.7-1.6-10.5-4.8c-0.6,0.9-1.1,2.1-1.4,3.7H206.8z"/>
<path class="st0" d="M237.4-51.5h-1.3l0.2-9.2h37l0.2,9.2h-1.2c-0.4-2.5-1-4.3-1.8-5.4c-0.8-1.1-1.6-1.8-2.4-2.1
	c-0.9-0.3-2.3-0.4-4.4-0.4h-6.1v26.9c0,3,0.1,4.9,0.2,5.9c0.1,0.9,0.5,1.6,1.1,2.1s1.8,0.7,3.5,0.7h1.9v1.3h-19v-1.3h2
	c1.6,0,2.8-0.2,3.4-0.6c0.6-0.4,1-1.1,1.2-1.9c0.2-0.9,0.3-2.9,0.3-6.1v-26.9h-5.7c-2.5,0-4.1,0.1-5,0.4c-0.8,0.2-1.6,0.9-2.4,2.1
	S237.8-53.9,237.4-51.5z"/>
<path class="st0" d="M361.5-22.5h-10.3c-1.8-1.3-4.6-4.6-8.4-10c-1.2-1.7-2.4-3.4-3.7-5c-1.3-1.6-2.2-2.6-2.7-2.9
	c-0.5-0.3-1.2-0.5-2.3-0.5h-1.5v8.5c0,3,0.1,5,0.2,5.9c0.1,0.9,0.5,1.6,1.1,2.1c0.6,0.5,1.8,0.7,3.5,0.7h1.8v1.3h-18.3v-1.3h1.2
	c1.6,0,2.8-0.2,3.4-0.6c0.6-0.4,1-1.1,1.2-1.9c0.2-0.9,0.3-2.9,0.3-6.1v-18.7c0-3-0.1-5-0.3-5.9s-0.5-1.5-1.1-1.8
	c-0.6-0.3-1.8-0.5-3.8-0.5h-0.6v-1.3l5.5-0.3c3.6-0.2,6.5-0.3,8.7-0.3c3.6,0,6.6,0.3,8.9,1c2.3,0.7,4.1,1.8,5.5,3.3
	c1.4,1.5,2.1,3.4,2.1,5.5c0,2.5-0.9,4.6-2.8,6.4c-1.8,1.8-4.5,2.9-8.1,3.3c1.6,0.8,4.2,3.5,7.7,8.3c2.9,3.9,5.2,6.4,6.8,7.6
	c1.7,1.2,3.6,1.8,5.9,1.9V-22.5z M332.7-42.2c1.4,0,2.9-0.1,4.4-0.2c1.5-0.1,2.8-0.3,3.9-0.6c1.1-0.3,2-0.8,2.7-1.5
	c0.7-0.6,1.2-1.5,1.6-2.5s0.6-2.3,0.6-3.9c0-2.7-0.7-4.8-2-6.4c-1.3-1.6-4.3-2.4-8.8-2.4c-0.7,0-1.5,0-2.4,0.1V-42.2z"/>
<g>
	<ellipse class="st1" cx="296" cy="-41.5" rx="14" ry="18.5"/>
</g>
<g>
	<circle class="st1" cx="176" cy="37" r="3"/>
</g>
<g>
	<ellipse class="st1" cx="75" cy="38.5" rx="14" ry="18.5"/>
</g>
<path class="st0" d="M-23.8-85h-4.2v9c0,4.5,0.3,7.2,0.9,8c0.6,0.8,2.1,1.2,4.7,1.2h2.8c2,0,3.7-0.3,5-0.8s2.5-1.6,3.7-3.2
	c1.2-1.6,2.1-3.8,2.8-6.6h1.4l-0.8,11.9h-31.6v-1.3h0.8c1.9,0,3.1-0.3,3.7-0.8c0.6-0.5,0.9-1.1,1.1-1.9c0.1-0.8,0.2-2.8,0.2-6v-18.7
	c0-2.9-0.1-4.8-0.2-5.7c-0.2-0.9-0.5-1.6-1.1-1.9c-0.6-0.4-1.8-0.5-3.6-0.5v-1.3h27.3l0.9,9.5h-1.3c-0.6-2.7-1.3-4.6-2.2-5.7
	s-1.9-1.8-3.1-2.1c-1.2-0.3-3.1-0.4-5.8-0.4h-5.3v16h4.1"/>
<g>
	<circle class="st1" cx="-18" cy="-86" r="3"/>
</g>
<path class="st0" d="M382.2-42h-4.2v9c0,4.5,0.3,7.2,0.9,8c0.6,0.8,2.1,1.2,4.7,1.2h2.8c2,0,3.7-0.3,5-0.8s2.5-1.6,3.7-3.2
	c1.2-1.6,2.1-3.8,2.8-6.6h1.4l-0.8,11.9h-31.6v-1.3h0.8c1.9,0,3.1-0.3,3.7-0.8c0.6-0.5,0.9-1.1,1.1-1.9c0.1-0.8,0.2-2.8,0.2-6v-18.7
	c0-2.9-0.1-4.8-0.2-5.7c-0.2-0.9-0.5-1.6-1.1-1.9c-0.6-0.4-1.8-0.5-3.6-0.5v-1.3h27.3l0.9,9.5h-1.3c-0.6-2.7-1.3-4.6-2.2-5.7
	s-1.9-1.8-3.1-2.1c-1.2-0.3-3.1-0.4-5.8-0.4h-5.3v16h4.1"/>
<g>
	<circle class="st1" cx="388" cy="-43" r="3"/>
</g>
<path class="st0" d="M237.3,57h-1.2l-11.2-30.3L215.1,57h-1.3l-8.9-28.6c-0.8-2.6-1.4-4.3-1.7-5.2c-0.4-0.9-0.8-1.5-1.4-1.9
	c-0.6-0.4-1.5-0.6-2.8-0.7v-1.2h13.8v1.2c-1.7,0.1-2.7,0.3-3.2,0.7s-0.7,0.9-0.7,1.6c0,0.6,0.4,2.1,1.1,4.6l6.6,21.4l9.6-29.5h1.5
	l10.8,29.5l5.6-19.5c0.7-2.6,1.1-4.4,1.1-5.2c0-2.4-1.3-3.6-3.8-3.6v-1.2h10v1.2c-1.5,0.1-2.6,0.7-3.3,1.6c-0.7,1-1.6,3.3-2.7,7.1
	L237.3,57z"/>
<path class="st0" d="M335.5,56.1h-9.9c-1.8-1.2-4.4-4.4-8-9.6c-1.2-1.7-2.4-3.3-3.6-4.8c-1.2-1.5-2.1-2.5-2.6-2.8s-1.2-0.5-2.2-0.5
	h-1.5v8.2c0,2.9,0.1,4.8,0.2,5.7c0.1,0.9,0.5,1.6,1.1,2s1.7,0.7,3.4,0.7h1.8v1.2h-17.6v-1.2h1.2c1.6,0,2.7-0.2,3.3-0.6
	c0.6-0.4,1-1,1.2-1.9c0.2-0.8,0.2-2.8,0.2-5.9v-18c0-2.9-0.1-4.8-0.2-5.7c-0.2-0.8-0.5-1.4-1.1-1.8s-1.8-0.5-3.6-0.5h-0.6v-1.2
	l5.3-0.3c3.5-0.2,6.3-0.2,8.3-0.2c3.5,0,6.4,0.3,8.5,1c2.2,0.7,4,1.7,5.3,3.2c1.4,1.5,2,3.3,2,5.3c0,2.4-0.9,4.5-2.7,6.1
	c-1.8,1.7-4.4,2.8-7.8,3.2c1.5,0.7,4,3.4,7.4,8c2.8,3.7,5,6.2,6.6,7.3c1.6,1.2,3.5,1.8,5.6,1.8V56.1z M307.7,37.2
	c1.4,0,2.8-0.1,4.2-0.2c1.4-0.1,2.7-0.3,3.8-0.6c1.1-0.3,1.9-0.8,2.6-1.4s1.2-1.4,1.6-2.5c0.4-1,0.6-2.3,0.6-3.7
	c0-2.6-0.6-4.7-1.9-6.2s-4.1-2.3-8.4-2.3c-0.7,0-1.4,0-2.3,0.1V37.2z"/>
<path class="st0" d="M361.4,28l-6.7,6.2l13.8,13.9c3.1,3.2,5.2,5.1,6.3,5.8c1.1,0.7,2.4,1,4.1,1v1.2h-19.1v-1.2h0.7
	c2.1,0,3.3-0.2,3.8-0.5s0.8-0.8,0.8-1.3c0-0.8-1.3-2.4-3.9-5.1l-10.4-10.5l-2.6,2.3v6.7c0,2.9,0.1,4.8,0.2,5.7
	c0.1,0.9,0.5,1.6,1.1,2c0.6,0.4,1.7,0.7,3.4,0.7h0.7v1.2h-16.5v-1.2h1.1c1.6,0,2.7-0.2,3.3-0.6c0.6-0.4,1-1,1.2-1.9
	c0.2-0.8,0.3-2.8,0.3-5.9v-18c0-3-0.1-5-0.3-5.8s-0.6-1.4-1.1-1.7c-0.6-0.3-1.9-0.4-3.9-0.4v-1.2h16.3v1.2h-0.7
	c-1.8,0-3,0.1-3.5,0.4c-0.6,0.3-0.9,0.9-1.1,1.7c-0.2,0.8-0.3,2.7-0.3,5.8v9.5L359.5,28"/>
<path class="st0" d="M382.2,55.8V44h1.4c1.5,7.7,5.2,11.5,10.9,11.5c2.6,0,4.6-0.7,6-2.2c1.4-1.5,2.1-3.1,2.1-4.9
	c0-1.8-0.6-3.4-1.9-4.6c-1.2-1.2-3.5-2.5-6.8-4c-2.9-1.3-5.2-2.4-6.7-3.3c-1.5-0.9-2.7-2.2-3.5-3.7c-0.8-1.5-1.3-3.1-1.3-4.8
	c0-2.6,0.9-4.8,2.7-6.5c1.8-1.7,4.1-2.6,6.9-2.6c1.6,0,3,0.3,4.4,0.8c1.4,0.5,2.8,1.6,4.2,3.1c0.8-1,1.3-2.1,1.4-3.2h1.2V29h-1.2
	c-0.7-2.8-1.9-5-3.6-6.6s-3.8-2.4-6.1-2.4c-2.2,0-3.8,0.6-4.8,1.8c-1,1.2-1.5,2.5-1.5,3.9c0,1.7,0.6,3.1,1.9,4.3
	c1.3,1.2,3.5,2.5,6.9,4c3.2,1.4,5.5,2.5,6.9,3.4c1.4,0.9,2.6,2,3.5,3.6c0.9,1.5,1.3,3.3,1.3,5.3c0,3.1-1,5.7-3.1,7.7s-4.9,3-8.4,3
	c-4,0-7.4-1.5-10.1-4.6c-0.6,0.8-1,2-1.3,3.6H382.2z"/>
<g>
	<ellipse class="st1" cx="274" cy="38.5" rx="14" ry="18.5"/>
</g>
<g>
	<circle class="st1" cx="365" cy="23" r="3"/>
</g>
</svg>
