<?xml version="1.0" encoding="utf-8"?>
<!-- Generator: Adobe Illustrator 24.0.1, SVG Export Plug-In . SVG Version: 6.00 Build 0)  -->
<svg version="1.1" id="Layer_1" xmlns="http://www.w3.org/2000/svg" xmlns:xlink="http://www.w3.org/1999/xlink" x="0px" y="0px"
	 viewBox="0 0 200 200" style="enable-background:new 0 0 200 200;" xml:space="preserve">
<style type="text/css">
	.st0{fill:#463F3A;}
	.st1{fill:#E0AFA0;}
</style>
<path class="st0" d="M80.5,92.6H47.7c-4.8,0-8.7-3.9-8.7-8.7V51.1c0-4.8,3.9-8.7,8.7-8.7h32.8c4.8,0,8.7,3.9,8.7,8.7v32.8
	C89.1,88.7,85.2,92.6,80.5,92.6z"/>
<path class="st1" d="M151.4,92.6h-33c-4.7,0-8.6-3.9-8.6-8.6V51c0-4.7,3.9-8.6,8.6-8.6h33c4.7,0,8.6,3.9,8.6,8.6v33
	C160,88.7,156.2,92.6,151.4,92.6z"/>
<path class="st0" d="M81.7,161.7H46.5c-4.1,0-7.5-3.4-7.5-7.5v-35.2c0-4.1,3.4-7.5,7.5-7.5h35.2c4.1,0,7.5,3.4,7.5,7.5v35.2
	C89.1,158.4,85.8,161.7,81.7,161.7z"/>
<path class="st0" d="M152.5,161.7h-35.1c-4.1,0-7.5-3.4-7.5-7.5v-35.1c0-4.1,3.4-7.5,7.5-7.5h35.1c4.1,0,7.5,3.4,7.5,7.5v35.1
	C160,158.4,156.6,161.7,152.5,161.7z"/>
</svg>
