<?xml version="1.0" encoding="utf-8"?>
<!-- Generator: Adobe Illustrator 24.0.1, SVG Export Plug-In . SVG Version: 6.00 Build 0)  -->
<svg version="1.1" id="Layer_1" xmlns="http://www.w3.org/2000/svg" xmlns:xlink="http://www.w3.org/1999/xlink" x="0px" y="0px"
	 viewBox="0 0 200 200" style="enable-background:new 0 0 200 200;" xml:space="preserve">
<style type="text/css">
	.st0{fill:#3E7EFF;}
	.st1{fill:#F4F3EE;}
	.st2{fill:none;stroke:#F4F3EE;stroke-width:5;stroke-miterlimit:10;}
</style>
<g>
	<circle class="st0" cx="103.5" cy="100.5" r="74"/>
</g>
<g>
	<path class="st1" d="M94.6,63.6c13.2,0,24,10.8,24,24s-10.8,24-24,24s-24-10.8-24-24S81.3,63.6,94.6,63.6 M94.6,55.6
		c-17.7,0-32,14.3-32,32s14.3,32,32,32s32-14.3,32-32S112.3,55.6,94.6,55.6L94.6,55.6z"/>
</g>
<g>
	<line class="st2" x1="232.7" y1="114.6" x2="256" y2="138"/>
</g>
<path class="st1" d="M148.6,147.9L148.6,147.9c1.8-1.6,2-4.5,0.4-6.4l-23.3-26.1c-1.6-1.8-4.5-2-6.4-0.4h0c-1.8,1.6-2,4.5-0.4,6.4
	l23.3,26.1C143.9,149.4,146.8,149.6,148.6,147.9z"/>
</svg>
